<svg width="500" height="500" viewBox="0 0 180 180" fill="none" xmlns="http://www.w3.org/2000/svg">
<g clip-path="url(#clip0)">
<path d="M90 4C107.009 4 123.636 9.04381 137.779 18.4936C151.922 27.9434 162.945 41.3748 169.454 57.0892C175.963 72.8037 177.666 90.0954 174.348 106.778C171.029 123.46 162.839 138.784 150.811 150.811C138.784 162.839 123.46 171.029 106.778 174.348C90.0954 177.666 72.8037 175.963 57.0892 169.454C41.3748 162.945 27.9434 151.922 18.4936 137.779C9.04382 123.636 4.00001 107.009 4.00001 90C4.02648 67.1995 13.0957 45.3404 29.2181 29.218C45.3405 13.0957 67.1995 4.02647 90 4ZM90 0C72.1997 0 54.7991 5.27841 39.9987 15.1677C25.1983 25.0571 13.6627 39.1131 6.85085 55.5585C0.0389652 72.0038 -1.74334 90.0998 1.72933 107.558C5.202 125.016 13.7737 141.053 26.3604 153.64C38.9471 166.226 54.9836 174.798 72.4419 178.271C89.9002 181.743 107.996 179.961 124.442 173.149C140.887 166.337 154.943 154.802 164.832 140.001C174.722 125.201 180 107.8 180 90C180 66.1305 170.518 43.2387 153.64 26.3604C136.761 9.48211 113.869 0 90 0V0Z" fill="#d9d9d9"/>
<path d="M41.5 140.77C41.4867 139.098 42.1374 137.489 43.3092 136.297C44.481 135.105 46.0782 134.426 47.75 134.41C48.7262 134.406 49.6893 134.636 50.559 135.079C51.4287 135.523 52.1799 136.168 52.75 136.96L50.85 138.34C50.5206 137.847 50.0741 137.444 49.5505 137.167C49.0269 136.889 48.4426 136.746 47.85 136.75C46.7825 136.75 45.7587 137.174 45.0039 137.929C44.2491 138.684 43.825 139.707 43.825 140.775C43.825 141.842 44.2491 142.866 45.0039 143.621C45.7587 144.376 46.7825 144.8 47.85 144.8C48.4424 144.803 49.0264 144.66 49.5498 144.382C50.0733 144.105 50.52 143.702 50.85 143.21L52.75 144.59C52.1799 145.382 51.4287 146.027 50.559 146.471C49.6893 146.914 48.7262 147.144 47.75 147.14C46.921 147.133 46.1014 146.963 45.3382 146.639C44.575 146.316 43.8833 145.844 43.3027 145.252C42.722 144.661 42.2639 143.96 41.9546 143.191C41.6452 142.422 41.4908 141.599 41.5 140.77Z" fill="#d9d9d9"/>
<path d="M53.63 140.78C53.6497 139.546 54.0338 138.345 54.734 137.329C55.4342 136.312 56.4192 135.526 57.5652 135.067C58.7112 134.609 59.9672 134.5 61.1751 134.753C62.383 135.007 63.489 135.612 64.3541 136.492C65.2192 137.373 65.8048 138.489 66.0372 139.701C66.2696 140.913 66.1385 142.167 65.6604 143.305C65.1823 144.443 64.3784 145.414 63.35 146.096C62.3215 146.779 61.1142 147.142 59.88 147.14C59.0514 147.135 58.2321 146.966 57.469 146.643C56.7058 146.32 56.014 145.85 55.4333 145.259C54.8525 144.668 54.3942 143.968 54.0848 143.199C53.7753 142.431 53.6208 141.609 53.63 140.78ZM63.63 140.78C63.587 140.043 63.3291 139.334 62.8881 138.742C62.447 138.15 61.8422 137.7 61.1482 137.448C60.4543 137.195 59.7017 137.152 58.9832 137.322C58.2648 137.493 57.6121 137.87 57.1056 138.407C56.5992 138.945 56.2612 139.619 56.1334 140.346C56.0057 141.073 56.0937 141.822 56.3866 142.5C56.6796 143.177 57.1647 143.755 57.7819 144.16C58.3992 144.565 59.1216 144.781 59.86 144.78C60.3738 144.774 60.8811 144.664 61.3519 144.459C61.8227 144.253 62.2474 143.954 62.6008 143.581C62.9542 143.208 63.2292 142.768 63.4094 142.287C63.5896 141.806 63.6714 141.293 63.65 140.78H63.63Z" fill="#d9d9d9"/>
<path d="M70.79 144.73H75.46V146.93H68.31V134.62H70.79V144.73Z" fill="#d9d9d9"/>
<path d="M76.09 140.78C76.1097 139.546 76.4938 138.345 77.194 137.329C77.8941 136.312 78.8792 135.526 80.0252 135.067C81.1712 134.609 82.4272 134.5 83.6351 134.753C84.843 135.007 85.949 135.612 86.8141 136.492C87.6792 137.373 88.2648 138.489 88.4972 139.701C88.7296 140.913 88.5985 142.167 88.1204 143.305C87.6423 144.443 86.8384 145.414 85.81 146.096C84.7815 146.779 83.5742 147.142 82.34 147.14C81.5114 147.135 80.6921 146.966 79.9289 146.643C79.1658 146.32 78.474 145.85 77.8933 145.259C77.3125 144.668 76.8542 143.968 76.5448 143.199C76.2353 142.431 76.0808 141.609 76.09 140.78ZM86.09 140.78C86.047 140.043 85.7891 139.334 85.348 138.742C84.907 138.15 84.3022 137.7 83.6082 137.448C82.9143 137.195 82.1617 137.152 81.4432 137.322C80.7248 137.493 80.0721 137.87 79.5656 138.407C79.0592 138.945 78.7212 139.619 78.5934 140.346C78.4657 141.073 78.5537 141.822 78.8466 142.5C79.1396 143.177 79.6246 143.755 80.2419 144.16C80.8592 144.565 81.5816 144.781 82.32 144.78C82.8338 144.774 83.3411 144.664 83.8119 144.459C84.2827 144.253 84.7074 143.954 85.0608 143.581C85.4142 143.208 85.6892 142.768 85.8694 142.287C86.0496 141.806 86.1314 141.293 86.11 140.78H86.09Z" fill="#d9d9d9"/>
<path d="M97 146.93L94.07 142.52H93.23V146.93H90.77V134.62H95.68C96.6119 134.665 97.4987 135.035 98.1868 135.665C98.8748 136.296 99.321 137.147 99.4479 138.071C99.5749 138.995 99.3747 139.935 98.882 140.727C98.3894 141.52 97.6352 142.115 96.75 142.41L99.93 146.93H97ZM93.23 136.82V140.52H95.23C95.7206 140.545 96.2012 140.374 96.566 140.045C96.9307 139.716 97.1498 139.256 97.175 138.765C97.2002 138.274 97.0294 137.794 96.7003 137.429C96.3712 137.064 95.9106 136.845 95.42 136.82H93.23Z" fill="#d9d9d9"/>
<path d="M110.14 146.93L109.14 143.93H104.54L103.54 146.93H100.9L105.49 134.62H108.17L112.74 146.93H110.14ZM105.27 141.82H108.41L106.84 137.16L105.27 141.82Z" fill="#d9d9d9"/>
<path d="M119 134.62C122.53 134.62 124.59 137.3 124.59 140.8C124.59 144.3 122.53 146.93 119 146.93H114.17V134.62H119ZM119 144.73C121 144.73 122.11 142.91 122.11 140.8C122.11 138.69 121.05 136.8 119 136.8H116.66V144.71L119 144.73Z" fill="#d9d9d9"/>
<path d="M126 140.78C126.018 139.543 126.401 138.34 127.101 137.32C127.801 136.301 128.787 135.511 129.935 135.051C131.082 134.59 132.341 134.48 133.551 134.732C134.762 134.985 135.87 135.59 136.738 136.472C137.605 137.353 138.193 138.471 138.426 139.686C138.66 140.9 138.529 142.156 138.051 143.297C137.572 144.437 136.767 145.41 135.737 146.094C134.706 146.778 133.497 147.142 132.26 147.14C131.431 147.136 130.61 146.968 129.846 146.646C129.082 146.324 128.389 145.854 127.807 145.262C127.225 144.671 126.766 143.971 126.456 143.202C126.146 142.432 125.991 141.609 126 140.78ZM136 140.78C135.955 140.045 135.696 139.34 135.255 138.751C134.814 138.162 134.21 137.714 133.518 137.464C132.826 137.214 132.076 137.172 131.36 137.343C130.644 137.515 129.994 137.892 129.49 138.428C128.986 138.964 128.65 139.636 128.523 140.361C128.397 141.086 128.485 141.832 128.777 142.508C129.07 143.183 129.553 143.758 130.169 144.162C130.784 144.566 131.504 144.781 132.24 144.78C132.755 144.776 133.265 144.669 133.738 144.464C134.211 144.26 134.638 143.962 134.994 143.589C135.349 143.215 135.626 142.774 135.808 142.292C135.989 141.809 136.071 141.295 136.05 140.78H136Z" fill="#d9d9d9"/>
<path d="M34.47 126.48L34.15 125.87C33.65 124.97 33.49 124.87 32.68 125.36L26.46 128.65C25.61 129.08 25.57 129.25 26.03 130.16L26.36 130.77L24.92 131.53L21.54 125.13C20.8386 124.095 20.4689 122.87 20.48 121.62C20.5472 121.197 20.7124 120.796 20.9625 120.449C21.2125 120.102 21.5405 119.818 21.92 119.62C22.2515 119.447 22.6147 119.342 22.9876 119.313C23.3606 119.284 23.7356 119.33 24.09 119.45C24.7097 119.68 25.27 120.045 25.73 120.52C25.4671 119.749 25.3917 118.926 25.51 118.12C25.5975 117.707 25.7768 117.319 26.0348 116.985C26.2927 116.651 26.6226 116.379 27 116.19C27.4561 115.927 27.9734 115.788 28.5 115.788C29.0266 115.788 29.544 115.927 30 116.19C31.1126 117.059 31.9837 118.198 32.53 119.5L35.83 125.74L34.47 126.48ZM26.63 123.69C25.86 122.23 25.03 121.87 23.9 122.47C22.77 123.07 22.7 123.86 23.46 125.29L23.88 126.1L27 124.43L26.63 123.69ZM31.53 120.93C31.2734 120.27 30.7965 119.719 30.18 119.37C29.8981 119.282 29.6005 119.255 29.3073 119.291C29.014 119.327 28.732 119.426 28.48 119.58C27.26 120.22 27.1 121.23 27.96 122.85L28.41 123.7L32 121.8L31.53 120.93Z" fill="#d9d9d9"/>
<path d="M15.64 110L17.2 109.55L17.41 110.3C17.71 111.3 17.86 111.38 18.76 111.1L26.55 108.86L26.28 107.93C25.53 105.13 24.88 104.73 21.94 105.29L21.49 103.71L26.35 102.32L29.56 113.5L28 113.9L27.81 113.24C27.51 112.24 27.36 112.17 26.47 112.44L19.71 114.44C18.79 114.68 18.71 114.84 18.99 115.83L19.18 116.49L17.62 116.93L15.64 110Z" fill="#d9d9d9"/>
<path d="M24.41 101.3V100.85C24.29 99.91 24.15 99.77 23.1 99.51L13.29 97L13 93.31L22.44 89.6C23.35 89.22 23.52 88.98 23.44 88.22V87.61L25.06 87.49L25.53 94.33L23.91 94.44V93.9C23.91 93.07 23.72 92.8 23.41 92.82C23.2708 92.8369 23.1355 92.8775 23.01 92.94L21.52 93.53L21.76 97.1L23.2 97.44C23.378 97.4955 23.5636 97.5225 23.75 97.52C24.07 97.52 24.14 97.27 24.09 96.52V95.9L25.7 95.79L26.08 101.22L24.41 101.3ZM16.09 95.65L20.09 96.65L19.91 94.12L16.09 95.65Z" fill="#d9d9d9"/>
<path d="M22 74.8C23.0323 74.9151 24.0156 75.3015 24.85 75.92C26.18 76.92 26.7 78.64 26.4 80.92C26.3504 81.7842 26.1232 82.6289 25.7327 83.4014C25.3421 84.174 24.7966 84.8577 24.13 85.41C23.4087 85.9628 22.5793 86.3579 21.6956 86.5698C20.8119 86.7816 19.8936 86.8056 19 86.64C18.1185 86.5587 17.2635 86.2955 16.4889 85.8669C15.7143 85.4383 15.0371 84.8537 14.5 84.15C13.9976 83.4885 13.6364 82.731 13.4386 81.9243C13.2407 81.1176 13.2106 80.2788 13.35 79.46C13.4784 78.1492 14.0622 76.9248 15 76L14 75.48L14.21 73.79L19.21 74.45L19 76.24C18.1234 76.1371 17.2374 76.3269 16.48 76.78C16.1204 77.0138 15.8185 77.326 15.5968 77.6931C15.3751 78.0603 15.2394 78.4729 15.2 78.9C14.95 80.9 16.53 82.26 19.47 82.64C22.41 83.02 24.34 82.12 24.61 80.09C24.677 79.6754 24.6448 79.2509 24.5162 78.8511C24.3876 78.4514 24.1662 78.0878 23.87 77.79C23.2824 77.2101 22.5194 76.8409 21.7 76.74L22 74.8Z" fill="#d9d9d9"/>
<path d="M25.42 73.45L25.66 72.8C26 71.8 25.94 71.67 25.06 71.37L18.46 68.93C17.59 68.59 17.46 68.67 17.05 69.62L16.82 70.27L15.3 69.7L17.65 63.33L19.17 63.89L19.02 64.29C18.7 65.29 18.76 65.43 19.64 65.73L22.72 66.87L20.8 61.75C20.7428 61.5726 20.6216 61.4229 20.46 61.33C20.27 61.26 20.11 61.42 19.93 61.89L19.64 62.69L18.1 62.13L20.25 56.29L21.79 56.86L21.58 57.42C21.38 57.96 21.45 58.36 21.9 59.56L22.9 62.23L29.19 61C29.87 60.85 30.14 60.67 30.33 60.21L30.51 59.72L32.03 60.28L29.71 66.55L28.19 66L28.38 65.49C28.58 64.95 28.57 64.67 28.38 64.58C28.2416 64.5503 28.0984 64.5503 27.96 64.58L24.1 65.31L25 67.7L26.27 68.17C27.14 68.51 27.27 68.43 27.66 67.48L27.81 67.08L29.33 67.64L26.94 74L25.42 73.45Z" fill="#d9d9d9"/>
<path d="M35 52.49L35.44 51.96C36.08 51.16 36.07 50.96 35.33 50.4L29.85 46C29.12 45.38 28.95 45.41 28.29 46.19L27.85 46.72L26.6 45.72L33.98 36.72L37.91 39.95L36.91 41.2C34.38 39.52 33.64 39.63 31.84 41.91L31.23 42.66L34 44.84C34.84 43.75 34.79 43.37 33.53 42.29L34.53 41.08L38.9 44.67L37.9 45.88C36.9 45.17 36.56 44.99 36.21 45.07C35.8348 45.2016 35.5144 45.4551 35.3 45.79C35.2908 45.8193 35.2908 45.8507 35.3 45.88L37.54 47.72C38.27 48.33 38.44 48.3 39.1 47.52L39.59 46.92L40.85 47.92L36.28 53.49L35 52.49Z" fill="#d9d9d9"/>
<path d="M51 30.28C53.57 33.47 53.08 37.05 49.72 39.76C48.3576 41.0028 46.563 41.6632 44.72 41.6C43.8084 41.5094 42.9269 41.2241 42.135 40.7635C41.3432 40.3029 40.6594 39.6776 40.13 38.93C39.5538 38.266 39.1227 37.4888 38.8644 36.6485C38.6061 35.8081 38.5263 34.923 38.63 34.05C38.945 32.2205 39.9737 30.591 41.49 29.52C44.86 26.79 48.44 27.08 51 30.28ZM41.51 33.22C41.7917 34.4194 42.3851 35.5233 43.23 36.42C43.9466 37.4944 44.9375 38.3575 46.1 38.92C46.5269 39.0725 46.987 39.1075 47.4321 39.0213C47.8772 38.9351 48.2909 38.7309 48.63 38.43C48.9942 38.1635 49.2794 37.8034 49.4555 37.3879C49.6315 36.9724 49.6918 36.517 49.63 36.07C49.3439 34.8439 48.7324 33.7177 47.86 32.81C47.1538 31.7603 46.1804 30.9179 45.04 30.37C44.6113 30.2373 44.1565 30.212 43.7157 30.2963C43.2748 30.3806 42.8615 30.5718 42.5119 30.8533C42.1623 31.1347 41.8872 31.4978 41.7107 31.9104C41.5343 32.3231 41.4619 32.7728 41.5 33.22H41.51Z" fill="#d9d9d9"/>
<path d="M62.06 31.54L55.65 34.62L55 33.16L55.62 32.86C56.54 32.4 56.62 32.24 56.18 31.4L53.13 25.07C52.74 24.23 52.57 24.17 51.65 24.61L51.03 24.91L50.32 23.43L57.68 19.89C58.6771 19.2874 59.8389 19.0144 61 19.11C61.4329 19.204 61.8385 19.3963 62.1853 19.672C62.532 19.9477 62.8108 20.2994 63 20.7C63.1779 21.0573 63.2705 21.4509 63.2705 21.85C63.2705 22.2491 63.1779 22.6427 63 23C62.6694 23.5844 62.2114 24.0869 61.66 24.47C63.29 24.04 63.96 24.31 64.71 25.75L65.24 26.84C65.68 27.72 65.95 27.97 66.24 27.84C66.3124 27.8072 66.3757 27.7573 66.4244 27.6946C66.4732 27.6318 66.506 27.5582 66.52 27.48C66.58 27.17 66.52 27.01 65.99 25.82L67.09 25.28L67.22 25.54C67.84 26.91 67.95 27.35 67.82 28.08C67.7202 28.505 67.5163 28.8984 67.2265 29.2249C66.9367 29.5514 66.5702 29.8006 66.16 29.95C65.4466 30.3543 64.6039 30.4655 63.81 30.26C63.09 30.02 62.64 29.54 62.09 28.4L61.58 27.34C60.95 26.08 60.65 25.97 59.31 26.58L58 27.23L59.29 29.89C59.68 30.76 59.85 30.8 60.8 30.37L61.4 30.08L62.06 31.54ZM58.45 25.2C60.11 24.4 60.45 23.78 59.89 22.6C59.7912 22.3663 59.6437 22.1563 59.4575 21.9839C59.2713 21.8115 59.0506 21.6806 58.81 21.6C58.1993 21.5166 57.5793 21.6627 57.07 22.01L55.74 22.65L57.26 25.8L58.45 25.2Z" fill="#d9d9d9"/>
<path d="M69.27 26.54L69.94 26.4C70.94 26.16 71.04 26.02 70.82 25.1L69.31 18.24C69.12 17.31 68.97 17.24 67.96 17.43L67.29 17.58L66.94 16L78.94 13.35L79.94 17.97L78.34 18.32C77.34 15.74 76.77 15.45 74.04 16.09L72.45 16.44L73.22 19.9L73.53 19.83C74.9 19.5 75.09 19.16 74.8 17.55L76.3 17.21L77.52 22.74L76.02 23.07C75.53 21.29 75.28 21.07 73.88 21.45L73.57 21.51L74.43 25.4L76.07 25C78.71 24.44 79.2 23.7 78.9 20.79L80.5 20.44L81.6 25.44L69.6 28.09L69.27 26.54Z" fill="#d9d9d9"/>
<path d="M84 25.45L83.92 20.58H85.59C85.6354 21.0356 85.7733 21.4772 85.9951 21.8778C86.2168 22.2784 86.518 22.6296 86.88 22.91C87.6119 23.5067 88.5363 23.8161 89.48 23.78C90.86 23.78 91.7 23.16 91.69 22.25C91.6853 22.0323 91.6273 21.819 91.5209 21.6289C91.4146 21.4389 91.2631 21.2779 91.08 21.16C90.5646 20.9189 90.0146 20.7603 89.45 20.69C88.4352 20.5075 87.4332 20.2603 86.45 19.95C85.9355 19.8354 85.4511 19.613 85.0288 19.2976C84.6065 18.9822 84.2559 18.5808 84 18.12C83.7504 17.6307 83.6202 17.0893 83.62 16.54C83.62 14.03 85.41 12.54 88.62 12.54C89.9445 12.4343 91.265 12.7874 92.36 13.54L92.71 12.66H94.26L94.33 17.2H92.62C92.5829 16.755 92.447 16.3238 92.2221 15.938C91.9972 15.5522 91.689 15.2215 91.32 14.97C90.5803 14.5282 89.7314 14.3029 88.87 14.32C87.7 14.32 86.92 14.93 86.94 15.79C86.94 16.49 87.38 16.79 88.67 17.06C91.67 17.63 92.61 17.93 93.5 18.53C93.9911 18.8581 94.3909 19.3054 94.662 19.8301C94.9331 20.3547 95.0666 20.9396 95.05 21.53C95.0656 22.0816 94.96 22.6298 94.7405 23.1361C94.5211 23.6424 94.1932 24.0943 93.78 24.46C93.227 24.9224 92.5669 25.2387 91.86 25.38C91.2321 25.5414 90.5881 25.632 89.94 25.65C89.1018 25.6388 88.2685 25.5212 87.46 25.3C86.9204 25.1733 86.4109 24.9423 85.96 24.62L85.49 25.54L84 25.45Z" fill="#d9d9d9"/>
<path d="M109.41 19.94L107.76 19.63C108.15 17.39 107.58 16.37 105.76 16.06L104.34 23.58C104.14 24.64 104.13 24.79 104.34 24.96C104.849 25.2084 105.397 25.3674 105.96 25.43L105.66 27.01L98.41 25.64L98.71 24.06C99.2643 24.2049 99.8389 24.2556 100.41 24.21C100.68 24.15 100.72 24.05 100.93 22.97L102.35 15.43C100.53 15.05 99.63 15.79 99.17 18.01L97.53 17.7L98.42 13L110.27 15.24L109.41 19.94Z" fill="#d9d9d9"/>
<path d="M116.79 29.1L117.47 29.45C118.39 29.9 118.56 29.86 118.97 29L122.16 22.75C122.61 21.91 122.54 21.75 121.64 21.27L120.96 20.93L121.69 19.48L128.23 22.81L127.49 24.26L126.81 23.91C125.89 23.46 125.73 23.5 125.31 24.36L122.13 30.61C121.68 31.45 121.74 31.61 122.65 32.09L123.33 32.43L122.59 33.88L116.06 30.55L116.79 29.1Z" fill="#d9d9d9"/>
<path d="M131.47 24.48L136.17 28.11L134.6 37.88L138.27 33.16C138.86 32.42 138.83 32.25 138.03 31.61L137.47 31.17L138.47 29.89L142.95 33.36L141.95 34.64L141.49 34.29C140.65 33.66 140.49 33.67 139.91 34.44L134 42.12L131 39.8L132.63 29.38L128.63 34.54C128.04 35.28 128.07 35.45 128.87 36.09L129.43 36.53L128.43 37.81L123.89 34.29L124.89 33.01L125.42 33.42C126.24 34.04 126.42 34.03 126.98 33.27L131.28 27.72C131.88 26.98 131.85 26.81 131.05 26.17L130.52 25.76L131.47 24.48Z" fill="#d9d9d9"/>
<path d="M136 44.35L139.74 41.22L140.82 42.5C140.494 42.8202 140.238 43.2036 140.066 43.6267C139.894 44.0497 139.81 44.5035 139.82 44.96C139.826 45.9106 140.182 46.8257 140.82 47.53C141.71 48.59 142.7 48.88 143.4 48.29C143.566 48.149 143.694 47.9695 143.774 47.7673C143.855 47.5651 143.884 47.3462 143.86 47.13C143.725 46.5749 143.502 46.0449 143.2 45.56C142.706 44.6612 142.269 43.7328 141.89 42.78C141.503 42.0735 141.378 41.2536 141.535 40.4637C141.692 39.6739 142.122 38.9646 142.75 38.46C144.67 36.85 146.98 37.35 149.03 39.79C149.95 40.7449 150.512 41.9884 150.62 43.31L151.53 43.04L152.53 44.22L149 47.14L147.9 45.82C148.221 45.5111 148.469 45.1345 148.627 44.7177C148.784 44.3008 148.847 43.8541 148.81 43.41C148.707 42.5565 148.36 41.7508 147.81 41.09C147.06 40.2 146.12 39.97 145.46 40.52C144.8 41.07 144.94 41.52 145.56 42.67C146.99 45.33 147.37 46.28 147.46 47.34C147.513 47.9212 147.421 48.5065 147.19 49.0427C146.96 49.5789 146.599 50.0489 146.14 50.41C145.722 50.7678 145.23 51.0293 144.699 51.1762C144.169 51.3231 143.613 51.3517 143.07 51.26C142.36 51.1241 141.696 50.811 141.14 50.35C140.61 49.9487 140.121 49.4965 139.68 49C139.165 48.3378 138.732 47.6159 138.39 46.85C138.152 46.3479 138.013 45.8047 137.98 45.25L136.98 45.46L136 44.35Z" fill="#d9d9d9"/>
<path d="M156.33 60.5L155.53 59.03C157.53 57.91 157.93 56.82 157.01 55.21L150.29 58.88C149.34 59.39 149.22 59.48 149.29 59.78C149.412 60.3315 149.632 60.8566 149.94 61.33L148.54 62.1L145 55.63L146.41 54.86C146.662 55.3825 147 55.8591 147.41 56.27C147.63 56.44 147.74 56.4 148.7 55.88L155.43 52.2C154.57 50.55 153.43 50.32 151.43 51.38L150.63 49.91L154.83 47.61L160.61 58.2L156.33 60.5Z" fill="#d9d9d9"/>
<path d="M151.54 65L151.79 65.73C152.13 66.73 152.28 66.78 153.17 66.45L159.82 64.19C160.72 63.9 160.82 63.74 160.47 62.77L160.23 62.05L161.76 61.52L164.12 68.52L162.59 69.04L162.34 68.32C162 67.32 161.85 67.32 160.96 67.59L154.31 69.85C153.41 70.14 153.31 70.3 153.66 71.27L153.9 72L152.37 72.52L150.01 65.52L151.54 65Z" fill="#d9d9d9"/>
<path d="M162.31 84.44L162.05 82.78C164.29 82.39 165.05 81.52 164.73 79.69L157.17 80.88C156.1 81.05 155.96 81.09 155.89 81.38C155.824 81.9415 155.858 82.5103 155.99 83.06L154.4 83.31L153.26 76L154.84 75.75C154.893 76.3197 155.038 76.877 155.27 77.4C155.42 77.64 155.53 77.64 156.62 77.47L164.2 76.27C163.94 74.43 162.94 73.83 160.69 74.15L160.43 72.49L165.16 71.75L167 83.7L162.31 84.44Z" fill="#d9d9d9"/>
<path d="M167.3 87.58L166.89 94.58L165.31 94.49C165.31 94.21 165.36 94.01 165.36 93.86C165.36 93.28 165.29 92.86 165.04 92.74C164.79 92.62 164.58 92.56 163.62 92.51L158.62 92.22C157.43 92.15 156.9 92.27 156.48 92.69C156.109 93.1167 155.906 93.6643 155.91 94.23C155.813 94.9391 156 95.6577 156.43 96.23C156.83 96.66 157.21 96.8 158.22 96.86L163.22 97.15C164.93 97.24 165.15 97.09 165.22 95.81V95.45L166.8 95.54L166.48 101.08L164.9 100.99C164.9 99.99 164.9 99.72 164.77 99.47C164.64 99.22 164.54 99.25 163.09 99.15L157.85 98.85C155.21 98.7 153.9 96.85 154.1 93.43C154.081 92.024 154.608 90.6653 155.57 89.64C155.925 89.296 156.353 89.0371 156.822 88.8829C157.292 88.7287 157.79 88.6833 158.28 88.75L163.73 89.07C165.25 89.15 165.62 88.93 165.73 87.95V87.45L167.3 87.58Z" fill="#d9d9d9"/>
<path d="M157.92 115.25L158.37 113.64C160.57 114.22 161.63 113.75 162.1 111.94L154.73 109.87C153.73 109.58 153.55 109.55 153.36 109.79C153.066 110.274 152.86 110.805 152.75 111.36L151.2 110.92L153.2 103.83L154.75 104.26C154.558 104.8 154.456 105.367 154.45 105.94C154.45 106.22 154.59 106.27 155.64 106.57L163.03 108.65C163.57 106.87 162.91 105.91 160.73 105.25L161.19 103.64L165.79 104.94L162.52 116.55L157.92 115.25Z" fill="#d9d9d9"/>
<path d="M151.58 115.12L151.26 115.73C150.79 116.64 150.83 116.81 151.68 117.24L157.87 120.54C158.7 121 158.87 120.94 159.36 120.05L159.68 119.44L161.11 120.2L155.34 131L151.17 128.77L151.94 127.33C154.55 128.25 155.15 128 156.43 125.5L157.2 124.07L154.07 122.41L153.93 122.69C153.28 123.95 153.42 124.32 154.84 125.14L154.11 126.5L149.11 123.84L149.83 122.48C151.5 123.26 151.83 123.19 152.45 121.91L152.6 121.63L149.09 119.76L148.3 121.24C147.01 123.61 147.3 124.46 149.66 126.12L148.89 127.57L144.38 125.16L150.14 114.33L151.58 115.12Z" fill="#d9d9d9"/>
<path d="M120.12 113.31L106.12 89.46H115L101 65.62H109.87L90.87 33.31L72 65.62H80.87L66.87 89.46H75.74L61.74 113.31H89.55V127.89H92.29V113.31H120.12ZM110.2 86.72H104.52L92.29 65.88V65.62H97.82L110.2 86.72ZM89.55 62.87H85.62L89.55 56.19V62.87ZM92.29 56.19L96.21 62.87H92.29V56.19ZM89.55 86.72H80.55L89.55 71.3V86.72ZM92.29 71.3L101.29 86.72H92.29V71.3ZM99.39 62.87L92.29 50.76V41.07L105.08 62.87H99.39ZM76.76 62.87L89.55 41.07V50.76L82.44 62.87H76.76ZM71.63 86.72L84 65.62H89.54V65.88L77.32 86.72H71.63ZM66.51 110.57L78.89 89.46H88.16L75.78 110.57H66.51ZM78.96 110.57L89.55 92.57V110.57H78.96ZM92.29 110.57V92.57L102.88 110.57H92.29ZM93.68 89.46H102.94L115.32 110.57H106.06L93.68 89.46Z" fill="#d9d9d9"/>
<path d="M73.23 161.78C73.23 163.99 71.23 165.52 68.66 165.52C66.09 165.52 64.07 163.99 64.07 161.78C64.0578 161.095 64.266 160.424 64.6638 159.866C65.0617 159.308 65.6282 158.892 66.28 158.68C65.8698 158.456 65.5301 158.122 65.2987 157.716C65.0674 157.31 64.9536 156.847 64.97 156.38C64.97 154.56 66.57 153.38 68.66 153.38C70.75 153.38 72.35 154.59 72.35 156.38C72.3664 156.847 72.2526 157.31 72.0213 157.716C71.7899 158.122 71.4502 158.456 71.04 158.68C71.6906 158.891 72.2555 159.307 72.6502 159.866C73.0449 160.425 73.2483 161.096 73.23 161.78ZM70.8 161.56C70.715 161.054 70.4533 160.594 70.0615 160.263C69.6697 159.931 69.1732 159.75 68.66 159.75C68.1468 159.75 67.6502 159.931 67.2585 160.263C66.8667 160.594 66.605 161.054 66.52 161.56C66.5909 162.077 66.8467 162.551 67.2401 162.894C67.6335 163.238 68.1379 163.427 68.66 163.427C69.1821 163.427 69.6865 163.238 70.0799 162.894C70.4733 162.551 70.7291 162.077 70.8 161.56ZM67.26 156.65C67.3094 156.987 67.4786 157.296 67.7365 157.519C67.9945 157.741 68.3241 157.864 68.665 157.864C69.0059 157.864 69.3355 157.741 69.5935 157.519C69.8514 157.296 70.0206 156.987 70.07 156.65C70.0403 156.298 69.8794 155.97 69.6191 155.731C69.3589 155.491 69.0184 155.359 68.665 155.359C68.3116 155.359 67.971 155.491 67.7108 155.731C67.4506 155.97 67.2897 156.298 67.26 156.65Z" fill="#d9d9d9"/>
<path d="M74.93 159.09C74.93 155.68 75.93 153 79.34 153C82.75 153 83.7 155.68 83.7 159.09C83.7 162.5 82.7 165.17 79.34 165.17C75.98 165.17 74.93 162.44 74.93 159.09ZM81.29 159.09C81.29 156.91 80.85 155.2 79.29 155.2C77.73 155.2 77.29 156.91 77.29 159.09C77.29 161.27 77.75 162.98 79.29 162.98C80.83 162.98 81.29 161.23 81.29 159.09Z" fill="#d9d9d9"/>
<path d="M94.42 159C94.42 162.5 92.73 165.52 89.42 165.52C88.6258 165.552 87.8401 165.346 87.1633 164.929C86.4865 164.512 85.9492 163.903 85.62 163.18L87.53 162.12C87.6853 162.481 87.9436 162.789 88.2726 163.004C88.6017 163.219 88.9868 163.332 89.38 163.33C90.86 163.33 91.92 161.97 92.01 160.1C91.6775 160.434 91.2791 160.696 90.8402 160.868C90.4012 161.04 89.9311 161.119 89.46 161.1C88.9444 161.127 88.4287 161.049 87.9443 160.87C87.4599 160.691 87.0171 160.416 86.6427 160.06C86.2684 159.705 85.9705 159.277 85.7671 158.802C85.5638 158.327 85.4593 157.816 85.46 157.3C85.46 155.05 87.19 153.3 89.81 153.3C92.43 153.3 94.42 155.66 94.42 159ZM91.83 157.37C91.8267 157.116 91.7714 156.866 91.6673 156.635C91.5633 156.404 91.4128 156.196 91.2253 156.026C91.0377 155.855 90.8171 155.725 90.5771 155.643C90.337 155.561 90.0827 155.529 89.83 155.55C89.5796 155.525 89.3268 155.552 89.0876 155.63C88.8483 155.708 88.6277 155.834 88.4397 156.002C88.2518 156.169 88.1006 156.373 87.9956 156.602C87.8907 156.831 87.8343 157.078 87.83 157.33C87.8323 157.574 87.8842 157.815 87.9827 158.039C88.0811 158.263 88.224 158.464 88.4027 158.63C88.5814 158.797 88.7921 158.925 89.022 159.008C89.2519 159.09 89.4962 159.125 89.74 159.11C89.993 159.142 90.2499 159.122 90.4948 159.05C90.7396 158.978 90.967 158.857 91.1631 158.694C91.3591 158.531 91.5194 158.329 91.6342 158.101C91.7489 157.874 91.8156 157.625 91.83 157.37Z" fill="#d9d9d9"/>
<path d="M96.29 159.44C96.29 156.03 97.29 153.35 100.71 153.35C104.13 153.35 105.06 156.03 105.06 159.44C105.06 162.85 104.06 165.52 100.71 165.52C97.36 165.52 96.29 162.79 96.29 159.44ZM102.65 159.44C102.65 157.26 102.22 155.55 100.71 155.55C99.2 155.55 98.71 157.26 98.71 159.44C98.71 161.62 99.18 163.33 100.71 163.33C102.24 163.33 102.65 161.58 102.65 159.44Z" fill="#d9d9d9"/>
<path d="M115.92 161.78C115.92 163.99 113.92 165.52 111.34 165.52C108.76 165.52 106.75 163.99 106.75 161.78C106.738 161.095 106.946 160.424 107.344 159.866C107.742 159.308 108.308 158.892 108.96 158.68C108.551 158.455 108.211 158.121 107.98 157.715C107.749 157.309 107.635 156.847 107.65 156.38C107.65 154.56 109.25 153.38 111.34 153.38C113.43 153.38 115.03 154.59 115.03 156.38C115.046 156.847 114.933 157.31 114.701 157.716C114.47 158.122 114.13 158.456 113.72 158.68C114.372 158.891 114.938 159.307 115.334 159.865C115.731 160.424 115.936 161.095 115.92 161.78ZM113.48 161.56C113.395 161.054 113.133 160.594 112.742 160.263C112.35 159.931 111.853 159.75 111.34 159.75C110.827 159.75 110.33 159.931 109.938 160.263C109.547 160.594 109.285 161.054 109.2 161.56C109.271 162.077 109.527 162.551 109.92 162.894C110.314 163.238 110.818 163.427 111.34 163.427C111.862 163.427 112.366 163.238 112.76 162.894C113.153 162.551 113.409 162.077 113.48 161.56ZM109.94 156.65C109.989 156.987 110.159 157.296 110.417 157.519C110.675 157.741 111.004 157.864 111.345 157.864C111.686 157.864 112.016 157.741 112.273 157.519C112.531 157.296 112.701 156.987 112.75 156.65C112.72 156.298 112.559 155.97 112.299 155.731C112.039 155.491 111.698 155.359 111.345 155.359C110.992 155.359 110.651 155.491 110.391 155.731C110.131 155.97 109.97 156.298 109.94 156.65Z" fill="#d9d9d9"/>
</g>
<defs>
<clipPath id="clip0">
<rect width="180" height="180" fill="#d9d9d9"/>
</clipPath>
</defs>
</svg>
